<svg enable-background="new 0 0 120 36" height="36" viewBox="0 0 120 36" width="120" xmlns="http://www.w3.org/2000/svg"><g fill="#2b3137"><path d="m83.175 84.403v-12.283c0-.607.058-3.244.058-5.186h-.058l-5.852 17.469h-2.781l-5.852-17.439h-.058c0 1.912.058 4.549.058 5.156v12.283h-2.723v-20.8h4.027l5.938 17.584h.058l5.91-17.584h3.998v20.8z"/><path d="m99.338 69.252h2.81c-1.767 4.954-3.505 9.908-5.446 14.862-2.405 6.142-2.666 6.489-5.939 6.489-.376 0-.666-.116-1.072-.232v-2.316c.319.115.84.26 1.536.26 1.333 0 1.477-.376 2.694-3.505l-5.621-15.558h2.897l4.026 12.342h.058z"/><path d="m119.355 84.403h-2.955l-5.417-20.8h3.042l3.882 16.919h.058l4.664-16.919h3.071l4.665 16.919h.058l3.882-16.919h3.101l-5.477 20.8h-2.954l-4.751-17.236h-.058z"/><path d="m145.92 68.818c4.836 0 7.037 4.085 7.037 7.996 0 3.91-2.201 7.995-7.037 7.995-4.838 0-7.041-4.085-7.041-7.995 0-3.911 2.203-7.996 7.041-7.996zm0 13.789c3.648 0 4.402-3.766 4.402-5.793 0-2.028-.754-5.794-4.402-5.794-3.65 0-4.404 3.766-4.404 5.794s.754 5.793 4.404 5.793z"/><path d="m158.752 84.403h-2.551v-15.151h2.404v2.521h.059c1.014-1.767 2.348-2.954 4.258-2.954.318 0 .465.029.668.086v2.638h-.957c-2.375 0-3.881 1.854-3.881 4.055z"/><path d="m178.131 84.403h-3.273l-4.721-7.647-2.115 1.912v5.735h-2.463v-20.8h2.463v12.052l6.518-6.403h3.244l-5.793 5.649z"/><path d="m188.588 73.569c-.027-.956-.375-2.549-3.592-2.549-.781 0-3.012.26-3.012 2.143 0 1.246.781 1.535 2.752 2.028l2.549.638c3.158.782 4.258 1.94 4.258 3.997 0 3.129-2.576 5.013-5.996 5.013-5.996 0-6.432-3.477-6.518-5.303h2.463c.086 1.188.434 3.101 4.025 3.101 1.826 0 3.477-.725 3.477-2.404 0-1.218-.84-1.623-3.014-2.173l-2.953-.724c-2.115-.521-3.506-1.595-3.506-3.68 0-3.332 2.752-4.838 5.736-4.838 5.418 0 5.793 3.997 5.793 4.751z"/></g><text transform="translate(-2.9995 -21.4878)"><tspan fill="#2b3137" font-family="'Helvetica'" font-size="31.8021" letter-spacing="1" x="0" y="0">M</tspan><tspan fill="#2b3137" font-family="'Helvetica'" font-size="31.8021" x="27.763" y="0">y Wo</tspan><tspan fill="#2b3137" font-family="'Helvetica'" font-size="31.8021" letter-spacing="1" x="100.207" y="0">r</tspan><tspan fill="#2b3137" font-family="'Helvetica'" font-size="31.8021" x="112.069" y="0">k</tspan><tspan fill="#2b3137" font-family="'Helvetica'" font-size="31.8021" x="128.606" y="0">s</tspan></text><path d="m18.96 28.258v-12.282c0-.608.059-3.244.059-5.185h-.059l-5.852 17.466h-2.781l-5.851-17.437h-.058c0 1.912.058 4.548.058 5.156v12.282h-2.723v-20.8h4.026l5.939 17.584h.058l5.91-17.584h3.998v20.799h-2.724z" fill="#2b3137"/><path d="m36.286 13.108h2.81c-1.767 4.953-3.505 9.908-5.446 14.861-2.405 6.143-2.665 6.49-5.939 6.49-.376 0-.666-.117-1.072-.232v-2.317c.319.115.84.26 1.536.26 1.333 0 1.477-.377 2.694-3.506l-5.621-15.556h2.897l4.027 12.341h.058z" fill="#2b3137"/><path d="m58.305 28.258h-2.955l-5.417-20.8h3.042l3.882 16.918h.058l4.664-16.918h3.07l4.665 16.918h.058l3.882-16.918h3.1l-5.476 20.799h-2.955l-4.751-17.236h-.058z" fill="#2b3137"/><path d="m84.872 12.673c4.838 0 7.04 4.084 7.04 7.995 0 3.912-2.202 7.996-7.04 7.996s-7.04-4.084-7.04-7.996c.001-3.91 2.202-7.995 7.04-7.995zm0 13.79c3.65 0 4.403-3.766 4.403-5.795 0-2.027-.753-5.793-4.403-5.793s-4.403 3.766-4.403 5.793c0 2.029.753 5.795 4.403 5.795z" fill="#2b3137"/><path d="m97.707 28.258h-2.549v-15.15h2.404v2.521h.058c1.014-1.769 2.346-2.956 4.259-2.956.318 0 .463.028.666.088v2.635h-.956c-2.375 0-3.882 1.854-3.882 4.057z" fill="#2b3137"/><path d="m118.247 28.258h-3.273l-4.723-7.646-2.114 1.912v5.734h-2.463v-20.8h2.463v12.052l6.519-6.402h3.244l-5.794 5.65z" fill="#2b3137"/></svg>