<svg enable-background="new 0 0 1000 140" height="140" viewBox="0 0 1000 140" width="1000" xmlns="http://www.w3.org/2000/svg"><path d="m39.405 111.195h-13.907l-25.498-97.901h14.317l18.271 79.63h.273l21.952-79.63h14.454l21.953 79.63h.273l18.271-79.63h14.59l-25.771 97.901h-13.909l-22.362-81.13h-.272z"/><path d="m160.348 37.837c22.771 0 33.133 19.226 33.133 37.634 0 18.407-10.362 37.633-33.133 37.633s-33.134-19.226-33.134-37.633c0-18.408 10.363-37.634 33.134-37.634zm0 64.904c17.18 0 20.726-17.726 20.726-27.27 0-9.545-3.545-27.271-20.726-27.271s-20.725 17.726-20.725 27.271c0 9.544 3.544 27.27 20.725 27.27z"/><path d="m236.16 37.837c22.771 0 33.133 19.226 33.133 37.634 0 18.407-10.362 37.633-33.133 37.633s-33.134-19.226-33.134-37.633c0-18.408 10.363-37.634 33.134-37.634zm0 64.904c17.18 0 20.726-17.726 20.726-27.27 0-9.545-3.545-27.271-20.726-27.271s-20.725 17.726-20.725 27.271c0 9.544 3.544 27.27 20.725 27.27z"/><path d="m342.105 111.195h-11.318v-9.817h-.272c-5.182 9.681-13.362 11.863-20.316 11.863-24.271 0-31.361-22.771-31.361-39.815 0-20.044 10.772-35.588 29.724-35.588 12.954 0 18.408 8.045 21.271 12.136l.273-.955v-35.725h12v97.901zm-31.634-8.318c7.637 0 19.499-5.044 19.499-23.998 0-11.59-1.909-30.271-19.226-30.271-18.544 0-19.499 17.59-19.499 26.725 0 15.682 6.136 27.544 19.226 27.544z"/><path d="m419.28 88.833c-.408 3.409-3.681 13.499-12.681 19.499-3.272 2.181-7.908 4.909-19.362 4.909-20.043 0-31.907-15.135-31.907-35.725 0-22.089 10.636-39.679 34.225-39.679 20.589 0 30.679 16.363 30.679 41.588h-52.086c0 14.862 6.954 23.452 20.726 23.452 11.317 0 17.998-8.727 18.408-14.044zm-11.453-18.953c-.682-11.044-5.317-21.271-19.907-21.271-11.045 0-19.771 10.227-19.771 21.271z"/><path d="m492.638 111.195h-11.999v-43.905c0-12.408-3.545-18.681-15.271-18.681-6.817 0-18.817 4.363-18.817 23.726v38.86h-11.998v-71.313h11.317v10.09h.273c2.59-3.818 9.271-12.136 21.543-12.136 11.044 0 24.952 4.5 24.952 24.816z"/><path d="m554.132 79.697v6.818c0 11.726 5.591 15.953 14.727 15.953 12.271 0 15.68-7.363 15.68-16.908v-72.266h13.227v71.449c0 22.907-14.999 29.043-28.225 29.043-22.771 0-27.815-15.272-27.815-24.407v-9.681h12.406z"/><path d="m676.985 88.833c-.409 3.409-3.682 13.499-12.681 19.499-3.272 2.181-7.908 4.909-19.362 4.909-20.044 0-31.906-15.135-31.906-35.725 0-22.089 10.636-39.679 34.225-39.679 20.589 0 30.679 16.363 30.679 41.588h-52.086c0 14.862 6.954 23.452 20.726 23.452 11.317 0 17.998-8.727 18.407-14.044zm-11.454-18.953c-.681-11.044-5.316-21.271-19.906-21.271-11.045 0-19.771 10.227-19.771 21.271z"/><path d="m715.574 111.195h-12.407l-20.59-71.313h13.091l13.634 56.041h.273l13.771-56.041h13.362l13.908 56.041h.273l14.453-56.041h11.998l-20.725 71.313h-12.409l-14.453-55.223h-.272z"/><path d="m847.153 88.833c-.409 3.409-3.682 13.499-12.681 19.499-3.272 2.181-7.908 4.909-19.362 4.909-20.044 0-31.906-15.135-31.906-35.725 0-22.089 10.635-39.679 34.225-39.679 20.589 0 30.679 16.363 30.679 41.588h-52.086c0 14.862 6.954 23.452 20.726 23.452 11.317 0 17.998-8.727 18.407-14.044zm-11.454-18.953c-.682-11.044-5.316-21.271-19.906-21.271-11.045 0-19.771 10.227-19.771 21.271z"/><path d="m874.695 111.195h-11.998v-97.901h11.998z"/><path d="m906.327 111.195h-11.999v-71.313h11.318v11.863h.271c4.772-8.318 11.045-13.909 20.045-13.909 1.499 0 2.181.137 3.135.409v12.408h-4.499c-11.182 0-18.271 8.727-18.271 19.09z"/><path d="m986.774 39.882h13.226c-8.317 23.316-16.499 46.633-25.634 69.949-11.317 28.907-12.544 30.543-27.953 30.543-1.772 0-3.135-.545-5.044-1.091v-10.908c1.499.545 3.954 1.227 7.227 1.227 6.272 0 6.954-1.772 12.681-16.499l-26.453-73.221h13.636l18.953 58.086h.273z"/></svg>