<svg enable-background="new 0 0 1400 156" height="156" viewBox="0 0 1400 156" width="1400" xmlns="http://www.w3.org/2000/svg"><g fill="#333"><path d="m0 152.092v-149.442h56.373c9.92 0 17.498.477 22.731 1.428 7.34 1.223 13.49 3.552 18.451 6.982 4.96 3.433 8.953 8.241 11.978 14.425 3.022 6.185 4.536 12.98 4.536 20.387 0 12.709-4.043 23.463-12.129 32.264-8.09 8.802-22.699 13.202-43.834 13.202h-38.33v60.754zm19.775-78.39h38.636c12.775 0 21.847-2.379 27.217-7.136 5.369-4.757 8.053-11.451 8.053-20.082 0-6.252-1.581-11.604-4.741-16.056-3.16-4.45-7.324-7.391-12.487-8.817-3.33-.883-9.481-1.325-18.452-1.325h-38.226z"/><path d="m139.859 152.092v-149.442h19.776v61.367h77.677v-61.367h19.775v149.441h-19.775v-70.439h-77.677v70.439h-19.776z"/><path d="m288.174 79.309c0-24.805 6.66-44.224 19.98-58.258 13.319-14.032 30.513-21.051 51.581-21.051 13.795 0 26.232 3.298 37.309 9.889 11.076 6.593 19.521 15.784 25.332 27.574 5.811 11.791 8.716 25.163 8.716 40.112 0 15.155-3.059 28.713-9.175 40.674s-14.781 21.016-25.993 27.166c-11.214 6.15-23.311 9.226-36.291 9.226-14.067 0-26.641-3.398-37.717-10.194-11.079-6.794-19.471-16.071-25.179-27.829s-8.563-24.193-8.563-37.309zm20.388.305c0 18.01 4.843 32.197 14.527 42.559 9.684 10.364 21.831 15.546 36.442 15.546 14.884 0 27.131-5.231 36.75-15.699 9.615-10.464 14.423-25.313 14.423-44.546 0-12.165-2.057-22.784-6.167-31.856-4.112-9.071-10.126-16.106-18.043-21.101s-16.804-7.493-26.656-7.493c-14 0-26.046 4.81-36.137 14.425-10.093 9.616-15.139 25.672-15.139 48.165z"/><path d="m490.425 152.092v-131.806h-49.237v-17.636h118.451v17.636h-49.439v131.806z"/><path d="m570.14 79.309c0-24.805 6.658-44.224 19.979-58.258 13.319-14.032 30.513-21.051 51.581-21.051 13.794 0 26.23 3.298 37.309 9.889 11.076 6.593 19.522 15.784 25.331 27.574 5.813 11.791 8.717 25.163 8.717 40.112 0 15.155-3.059 28.713-9.176 40.674-6.114 11.961-14.779 21.016-25.992 27.166s-23.311 9.226-36.291 9.226c-14.068 0-26.641-3.398-37.717-10.194-11.078-6.794-19.47-16.071-25.179-27.829-5.708-11.758-8.562-24.193-8.562-37.309zm20.386.305c0 18.01 4.843 32.197 14.527 42.559 9.685 10.364 21.83 15.546 36.442 15.546 14.883 0 27.132-5.231 36.748-15.699 9.615-10.464 14.424-25.313 14.424-44.546 0-12.165-2.057-22.784-6.166-31.856-4.113-9.071-10.127-16.106-18.043-21.101-7.918-4.995-16.804-7.493-26.658-7.493-14 0-26.044 4.81-36.136 14.425-10.092 9.616-15.138 25.672-15.138 48.165z"/><path d="m812.43 152.092v-149.442h56.066c11.416 0 20.573 1.514 27.472 4.537 6.896 3.024 12.3 7.68 16.209 13.966 3.907 6.286 5.861 12.861 5.861 19.724 0 6.39-1.732 12.404-5.198 18.044-3.467 5.641-8.7 10.193-15.7 13.659 9.039 2.65 15.987 7.172 20.848 13.558 4.857 6.389 7.289 13.933 7.289 22.631 0 7-1.479 13.506-4.435 19.521-2.957 6.016-6.612 10.652-10.958 13.915-4.352 3.261-9.806 5.726-16.363 7.391-6.558 1.666-14.593 2.497-24.106 2.497h-56.985zm19.776-86.648h32.313c8.768 0 15.053-.576 18.859-1.733 5.027-1.493 8.818-3.975 11.366-7.439 2.548-3.468 3.822-7.815 3.822-13.049 0-4.961-1.188-9.328-3.567-13.099-2.38-3.773-5.776-6.354-10.192-7.748-4.419-1.393-11.997-2.09-22.733-2.09h-29.868zm0 69.013h37.208c6.386 0 10.872-.237 13.455-.715 4.552-.814 8.358-2.173 11.417-4.077 3.058-1.901 5.571-4.672 7.544-8.308 1.971-3.634 2.956-7.832 2.956-12.589 0-5.571-1.428-10.414-4.281-14.526-2.854-4.111-6.814-6.999-11.876-8.665-5.063-1.664-12.354-2.497-21.865-2.497h-34.558z"/><path d="m946.479 79.309c0-24.805 6.659-44.224 19.979-58.258 13.318-14.032 30.514-21.051 51.581-21.051 13.794 0 26.23 3.298 37.309 9.889 11.077 6.593 19.521 15.784 25.331 27.574 5.812 11.791 8.717 25.163 8.717 40.112 0 15.155-3.058 28.713-9.175 40.674s-14.781 21.016-25.994 27.166-23.311 9.226-36.29 9.226c-14.068 0-26.641-3.398-37.717-10.194-11.078-6.794-19.47-16.071-25.18-27.829-5.708-11.758-8.561-24.193-8.561-37.309zm20.386.305c0 18.01 4.842 32.197 14.526 42.559 9.685 10.364 21.83 15.546 36.442 15.546 14.884 0 27.133-5.231 36.749-15.699 9.615-10.464 14.424-25.313 14.424-44.546 0-12.165-2.057-22.784-6.166-31.856-4.113-9.071-10.127-16.106-18.044-21.101s-16.803-7.493-26.657-7.493c-14.001 0-26.044 4.81-36.136 14.425-10.093 9.616-15.138 25.672-15.138 48.165z"/><path d="m1108.865 79.309c0-24.805 6.66-44.224 19.979-58.258 13.319-14.032 30.513-21.051 51.582-21.051 13.794 0 26.23 3.298 37.31 9.889 11.076 6.593 19.521 15.784 25.332 27.574 5.811 11.791 8.715 25.163 8.715 40.112 0 15.155-3.059 28.713-9.175 40.674-6.115 11.961-14.779 21.016-25.993 27.166s-23.312 9.226-36.29 9.226c-14.068 0-26.642-3.398-37.719-10.194-11.078-6.794-19.469-16.071-25.177-27.829-5.71-11.758-8.564-24.193-8.564-37.309zm20.389.305c0 18.01 4.842 32.197 14.525 42.559 9.684 10.364 21.831 15.546 36.442 15.546 14.882 0 27.131-5.231 36.749-15.699 9.615-10.464 14.424-25.313 14.424-44.546 0-12.165-2.057-22.784-6.167-31.856-4.113-9.071-10.127-16.106-18.043-21.101-7.917-4.995-16.804-7.493-26.658-7.493-13.999 0-26.044 4.81-36.135 14.425-10.093 9.616-15.137 25.672-15.137 48.165z"/><path d="m1276.45 152.092v-149.442h19.776v74.11l74.211-74.109h26.81l-62.691 60.552 65.444 88.89h-26.096l-53.213-75.638-24.465 23.854v51.784h-19.776z"/></g></svg>