<svg enable-background="new 0 0 57.4775391 131.578125" height="131.578125" viewBox="0 0 57.4775391 131.578125" width="57.477539" xmlns="http://www.w3.org/2000/svg"><g fill="#fff"><path d="m28.3789063 35.8789063 6.5400391 4.859375c-.3603516.4804688-1.2001953 1.0800781-2.3398438 1.2607422v12.0595703c-.0605469.359375-3.4199219 1.5-5.5195313 1.5h-1.0800781v-3.6601563h-10.6796875v2.6992188c0 .4208984-1.9199219 1.8007813-5.1601563 1.8007813h-1.0800781v-10.5c-1.7392578 3.2402344-4.2597656 6.2998047-7.9189453 8.8798828l-.6005859-.6005859c5.5205078-8.21875 6-18.4785156 6-26.7587891v-9.1191406c-1.9199219 1.3798828-3.9599609 2.5800781-6.0595703 3.6591797l-.4804688-.5390626c6.1796875-5.7597656 11.3994141-15 13.5-21.4199219l9.7197266 1.9804688c-.2402344.7197266-.7802734 1.0800781-2.3398438 1.3193359 20.5185547 3.7207031 13.3789063 15.9599609 7.9189453 11.8798828-.9599609-3.4199219-4.0195313-7.9794922-8.5195313-11.2792969-2.0400391 3.1796875-4.7392578 6.5390625-7.9794922 9.6591797h7.2001954l2.9990234-3.8398438s3.4804688 2.6396484 5.5800781 4.5595703c-.1796875.6601563-.7802734.9609375-1.6201172.9609375h-14.758789l-.2402344-.9003906c-1.1396484 1.0195313-2.3398438 2.0400391-3.5400391 2.9394531l6 2.2207031h10.9189453l3.0605469-3.3603516 6.5390626 4.8603517c-.359375.4794922-1.2597656 1.0195313-2.4599609 1.3193359v11.9394531c-.0595703.3603516-3.359375 1.5605469-5.4589844 1.5605469h-1.0800781v-1.8007813h-12.8994141c-.1201172 1.2001954-.2998047 2.4003907-.5400391 3.6601563l4.0800781 1.5595703h9.2988281zm-2.9394532-3.5400391v-4.6796875h-12.540039c0 1.4404297-.0595703 3-.1796875 4.6796875zm-12.540039-11.1591797v4.7998047h12.5400391v-4.7998047zm13.0800781 28.9785156v-9.2392578h-10.6796875v9.2392578zm17.2792969-8.399414c0 .6601563-2.6396484 1.859375-4.9199219 1.859375h-1.1396484v-38.3984375l8.0996093.7802734c-.1201172.7802734-.6005859 1.3203125-2.0400391 1.5605469v34.1982422zm13.4990234-39.6582032c-.1796875.8994141-.7792969 1.5-2.2197266 1.6796875v44.8183594c0 4.6796875-.9599609 7.3193359-8.4599609 8.0390625-.1796875-2.0996094-.4794922-3.6591797-1.3798828-4.7392578-.9599609-1.0205078-2.2197266-1.7998047-5.0996094-2.2197266v-.8408203s5.9394531.3603516 7.2001953.3603516c.9599609 0 1.2597656-.2998047 1.2597656-1.0800781v-46.9179688z"/><path d="m17.4599609 94.0800781c-.1806641.5390625-.7207031.9589844-1.8603516 1.1992188v34.2587891c-.1201172.5400391-3 2.0400391-5.7597656 2.0400391h-1.3203124v-31.3789063c-2.3994141 2.7597656-4.9794922 5.1601563-7.7392578 7.2001953l-.7197266-.5400391c5.3398438-7.5 10.9189453-19.6796875 13.9189453-31.6787109l9.5400391 3.1796875c-.2998047.7802734-1.0800781 1.2597656-2.4003906 1.2001953-2.0400391 4.859375-4.3798828 9.2988281-6.9589844 13.3193359zm22.4990235-4.3203125v11.0996094h4.7998047l3.6591797-4.7998047s4.140625 3.2998047 6.7197266 5.5800781c-.1796875.6591797-.8398438.9599609-1.6796875.9599609h-13.4990235v11.3388672h5.1591797l4.0205078-5.2197266s4.4394531 3.5400391 7.1992188 5.9404297c-.1796875.6591797-.8398438.9599609-1.7402344.9599609h-14.6386719v14.0390625c0 .4199219-2.2207031 1.859375-5.9404297 1.859375h-1.3193359v-41.7578124h-1.4404297c-3.8994141 5.8798828-8.3994141 10.6796875-13.4394531 14.2792969l-.6601563-.4794922c4.6201172-6.7802734 9.6601563-17.6992188 12.3603516-28.3193359l9.6591797 3.4199219c-.2998047.7802734-1.0800781 1.2597656-2.4599609 1.1396484-1.3798828 2.9404297-2.8203125 5.7597656-4.4394531 8.3398438h14.0996094l3.9589844-5.1591797s4.4404297 3.4794922 7.1396484 5.8193359c-.1796875.6601563-.8398438.9599609-1.6796875.9599609z"/></g></svg>